<?xml version="1.0" standalone="no"?>
<!DOCTYPE svg PUBLIC "-//W3C//DTD SVG 20010904//EN"
 "http://www.w3.org/TR/2001/REC-SVG-20010904/DTD/svg10.dtd">
<svg version="1.0" xmlns="http://www.w3.org/2000/svg"
 width="900.000000pt" height="593.000000pt" viewBox="0 0 900.000000 593.000000"
 preserveAspectRatio="xMidYMid meet">

<g transform="translate(0.000000,593.000000) scale(0.100000,-0.100000)"
fill="#000000" stroke="none">
<path d="M4333 5505 c-95 -17 -162 -40 -258 -87 -198 -98 -361 -270 -451 -476
l-32 -75 -149 -59 c-622 -247 -802 -461 -598 -714 43 -52 122 -128 210 -200
99 -81 273 -194 298 -194 50 0 82 36 192 218 60 100 112 182 115 182 3 0 28
-35 55 -76 106 -160 290 -299 488 -367 9 -4 17 -16 17 -27 0 -19 -6 -20 -158
-20 -233 0 -295 -25 -360 -148 -19 -35 -83 -115 -155 -193 -648 -703 -712
-776 -730 -825 -48 -135 9 -279 137 -347 32 -17 58 -22 116 -22 94 0 129 18
242 119 46 41 84 73 85 72 1 -1 -38 -161 -87 -356 -49 -195 -90 -372 -90 -393
0 -29 7 -45 29 -68 l29 -29 267 0 c203 0 267 -3 270 -13 2 -6 11 -176 20 -377
8 -201 20 -383 26 -404 25 -90 102 -170 195 -206 146 -55 321 19 385 164 25
58 34 153 44 464 4 122 11 222 15 222 4 0 11 -100 15 -222 10 -311 19 -406 44
-464 64 -145 239 -219 385 -164 93 36 170 116 195 206 6 21 18 203 26 404 9
201 18 371 20 378 3 9 67 12 270 12 l267 0 29 29 c22 23 29 39 29 68 0 21 -41
198 -90 393 -49 195 -88 355 -87 356 1 1 39 -31 85 -72 113 -101 148 -119 242
-119 58 0 84 5 116 22 128 68 185 212 137 347 -18 49 -82 122 -730 825 -72 78
-136 158 -155 193 -65 123 -127 148 -360 148 -154 0 -158 1 -158 21 0 13 8 23
23 27 12 3 66 27 119 54 157 79 287 192 374 327 21 34 41 61 44 61 3 0 55 -82
115 -182 110 -182 142 -218 192 -218 25 0 199 113 298 194 141 116 224 205
266 286 32 62 32 148 0 209 -71 135 -287 274 -654 419 l-149 59 -32 75 c-153
353 -504 581 -885 577 -47 0 -118 -7 -158 -14z m18 -258 c-81 -235 -277 -416
-524 -483 l-49 -13 6 27 c14 59 97 210 149 270 96 110 237 202 366 238 72 19
72 20 52 -39z m346 39 c132 -35 272 -126 370 -238 52 -60 135 -211 149 -270
l6 -27 -49 13 c-247 67 -443 248 -524 483 -10 29 -15 53 -11 53 4 0 30 -6 59
-14z m-152 -300 c126 -215 377 -387 638 -436 l67 -12 0 -39 c0 -56 -27 -163
-59 -234 -233 -514 -906 -611 -1268 -183 -92 108 -157 258 -169 389 l-7 66 69
13 c262 49 513 220 639 436 21 35 41 64 45 64 4 0 24 -29 45 -64z m-987 -596
c8 -45 7 -46 -105 -230 -62 -102 -117 -191 -122 -199 -6 -10 -25 -1 -84 43
-157 116 -277 238 -277 282 0 59 189 181 465 300 l100 43 7 -97 c4 -53 11
-117 16 -142z m2127 140 c213 -101 345 -195 345 -244 0 -45 -116 -163 -278
-283 -58 -43 -77 -52 -83 -42 -5 8 -59 97 -122 199 -108 177 -112 187 -106
225 4 22 11 86 15 142 l7 102 41 -16 c23 -9 104 -46 181 -83z m-1105 -986 c0
-36 5 -74 10 -85 13 -23 61 -49 90 -49 20 0 20 -1 -5 -35 -35 -46 -116 -85
-175 -85 -59 0 -140 39 -175 85 -25 34 -25 35 -5 35 29 0 77 26 90 49 5 11 10
49 10 85 l0 66 80 0 80 0 0 -66z m-490 -146 c0 -34 65 -144 112 -191 163 -162
433 -162 596 0 47 47 112 157 112 191 0 15 135 17 174 2 32 -12 15 49 256
-930 111 -448 203 -823 206 -832 5 -17 -49 -18 -1046 -18 -997 0 -1051 1
-1046 18 3 9 95 384 206 832 238 966 225 918 253 930 36 14 177 12 177 -2z
m-514 -410 c-3 -7 -23 -91 -46 -186 l-43 -173 -179 -167 c-182 -168 -210 -191
-239 -192 -32 0 -69 39 -69 74 0 29 33 69 286 344 157 172 288 312 290 312 2
0 2 -6 0 -12z m2173 -337 c221 -241 251 -278 251 -307 0 -35 -37 -74 -69 -74
-29 1 -57 24 -239 192 l-179 167 -43 173 c-23 95 -44 180 -46 188 -7 21 40
-28 325 -339z m-1453 -1348 c-3 -65 -11 -230 -17 -368 -12 -284 -16 -300 -84
-324 -35 -12 -45 -11 -77 2 -64 27 -66 38 -83 409 -8 183 -15 348 -15 366 l0
32 141 0 141 0 -6 -117z m684 85 c0 -18 -7 -183 -15 -367 -17 -377 -19 -385
-90 -410 -35 -12 -45 -11 -77 2 -61 25 -65 44 -77 322 -6 138 -14 303 -17 368
l-6 117 141 0 141 0 0 -32z"/>
<path d="M4123 4533 c-12 -2 -33 -16 -47 -30 -38 -37 -36 -95 3 -134 26 -26
37 -29 89 -29 50 0 63 4 85 25 34 34 40 67 23 110 -22 51 -78 73 -153 58z"/>
<path d="M4772 4525 c-38 -17 -66 -71 -56 -110 3 -13 17 -36 31 -50 22 -21 35
-25 85 -25 52 0 63 3 89 29 57 57 28 149 -52 165 -44 9 -60 7 -97 -9z"/>
<path d="M4229 3010 c-259 -44 -376 -330 -243 -592 49 -97 203 -234 403 -361
54 -34 85 -47 111 -47 26 0 57 13 111 47 200 127 354 264 403 361 92 181 68
380 -61 504 -98 95 -279 121 -409 57 l-44 -21 -44 21 c-24 12 -70 26 -102 31
-65 11 -60 11 -125 0z m117 -210 c15 -6 46 -31 69 -55 37 -40 46 -45 85 -45
39 0 48 5 84 43 57 61 78 70 142 62 93 -11 134 -64 134 -173 0 -113 -69 -200
-257 -329 -50 -35 -97 -63 -103 -63 -23 0 -196 125 -258 186 -75 75 -101 128
-102 207 0 94 34 151 102 167 48 11 73 11 104 0z"/>
<path d="M3690 1893 c-71 -36 -71 -141 -1 -177 26 -14 104 -16 615 -16 432 0
592 3 611 12 59 27 72 109 26 160 l-29 33 -594 3 c-550 2 -596 1 -628 -15z"/>
<path d="M5224 1900 c-32 -13 -64 -59 -64 -92 0 -69 56 -117 123 -104 90 17
112 139 33 187 -33 20 -58 23 -92 9z"/>
</g>
</svg>
